<?xml version="1.0" encoding="UTF-8" standalone="no"?>
<!DOCTYPE svg PUBLIC "-//W3C//DTD SVG 1.1//EN" "http://www.w3.org/Graphics/SVG/1.1/DTD/svg11.dtd">
<svg version="1.1" xmlns="http://www.w3.org/2000/svg" xmlns:xlink="http://www.w3.org/1999/xlink" preserveAspectRatio="xMidYMid meet" viewBox="0 0 243 243" width="243" height="243"><defs><path d="M188.44 2.93L189.42 3.03L190.41 3.17L200.35 4.79L200.6 4.83L200.86 4.88L201.12 4.94L201.37 5L201.62 5.07L201.87 5.15L202.11 5.23L202.36 5.31L202.6 5.4L202.84 5.5L203.08 5.6L203.31 5.71L203.54 5.82L203.77 5.94L203.99 6.06L204.22 6.19L204.44 6.32L204.65 6.45L204.87 6.6L205.08 6.74L205.28 6.9L205.48 7.05L205.68 7.21L205.88 7.38L206.07 7.55L206.26 7.72L206.44 7.9L206.62 8.09L206.8 8.27L206.97 8.47L207.14 8.66L207.3 8.86L207.46 9.07L207.61 9.28L207.76 9.49L207.91 9.7L208.05 9.92L208.18 10.15L208.31 10.37L208.44 10.6L210.14 13.87L211.78 17.09L213.36 20.25L214.88 23.37L216.34 26.44L217.74 29.46L219.08 32.43L220.35 35.35L221.57 38.22L222.72 41.05L223.81 43.82L224.84 46.55L225.81 49.22L226.71 51.85L227.56 54.43L228.34 56.95L229.07 59.43L229.73 61.86L230.33 64.25L230.87 66.58L231.35 68.86L231.76 71.1L232.12 73.28L232.41 75.42L232.65 77.5L232.82 79.54L232.93 81.53L232.98 83.47L232.96 85.36L232.89 87.2L232.76 88.99L232.56 90.74L232.3 92.43L231.98 94.08L231.6 95.67L231.16 97.22L230.66 98.72L230.09 100.17L229.47 101.57L228.78 102.92L228 104.08L227.01 105.1L225.82 105.97L224.44 106.71L222.89 107.32L221.17 107.82L219.3 108.2L217.29 108.48L215.15 108.66L212.89 108.76L210.52 108.78L208.06 108.73L205.52 108.62L202.9 108.45L200.22 108.23L197.49 107.98L194.72 107.7L191.93 107.39L189.12 107.07L186.31 106.74L183.5 106.42L180.72 106.11L177.96 105.81L175.25 105.54L172.59 105.3L169.99 105.11L167.47 104.96L165.04 104.87L162.71 104.85L160.49 104.91L158.39 105.04L156.42 105.27L154.6 105.59L152.93 106.02L151.43 106.56L150.11 107.23L148.99 108.03L148.06 108.96L147.35 110.04L146.86 111.28L146.59 112.71L146.6 114.04L146.89 115.27L147.43 116.41L148.22 117.46L149.24 118.43L150.46 119.33L151.89 120.16L153.5 120.92L155.28 121.63L157.22 122.28L159.3 122.89L161.5 123.45L163.82 123.98L166.23 124.48L168.72 124.95L171.28 125.4L173.9 125.84L176.55 126.27L179.23 126.69L181.92 127.12L184.6 127.56L187.27 128L189.9 128.47L192.48 128.96L194.99 129.48L197.43 130.04L199.78 130.64L202.02 131.28L204.14 131.98L206.12 132.73L207.96 133.55L209.62 134.43L211.11 135.39L212.4 136.43L213.49 137.55L214.35 138.77L214.97 140.08L215.34 141.49L215.45 143L215.38 144.36L215.22 145.75L214.98 147.17L214.65 148.64L214.24 150.14L213.74 151.68L213.16 153.26L212.5 154.87L211.75 156.52L210.92 158.21L210 159.94L208.99 161.71L207.9 163.51L206.73 165.35L205.47 167.23L204.13 169.15L202.7 171.1L201.19 173.09L199.59 175.12L197.91 177.19L196.14 179.29L194.29 181.43L192.35 183.61L190.33 185.83L188.23 188.08L186.04 190.38L183.76 192.7L181.4 195.07L178.96 197.48L176.43 199.92L173.81 202.4L171.12 204.92L168.33 207.47L165.46 210.07L162.51 212.7L159.47 215.36L156.48 217.96L157.85 217.77L160.57 217.36L163.29 216.92L166.01 216.44L168.73 215.94L171.45 215.41L174.18 214.85L176.91 214.25L179.64 213.63L182.37 212.98L185.11 212.29L187.84 211.58L190.58 210.83L193.32 210.05L196.07 209.25L198.81 208.41L201.56 207.54L204.31 206.65L207.06 205.72L209.82 204.76L212.58 203.77L215.33 202.75L218.1 201.7L220.86 200.62L223.62 199.51L226.39 198.37L229.16 197.2L231.93 196L232.21 195.88L232.5 195.78L232.78 195.7L233.07 195.64L233.35 195.59L233.63 195.56L233.91 195.54L234.19 195.54L234.47 195.56L234.74 195.58L235.01 195.63L235.28 195.68L235.54 195.75L235.8 195.83L236.05 195.93L236.3 196.04L236.54 196.16L236.77 196.29L237 196.43L237.22 196.59L237.43 196.75L237.64 196.93L237.83 197.11L238.02 197.31L238.19 197.51L238.36 197.72L238.52 197.95L238.66 198.18L238.79 198.41L238.91 198.66L239.02 198.91L239.11 199.17L239.2 199.44L239.26 199.71L239.32 199.99L239.35 200.28L239.38 200.57L239.38 200.86L239.37 201.16L239.35 201.46L238.62 207.81L238.49 208.8L238.32 209.78L238.12 210.74L237.88 211.69L237.6 212.62L237.3 213.54L236.96 214.44L236.59 215.32L236.19 216.19L235.76 217.04L235.3 217.87L234.81 218.68L234.29 219.47L233.75 220.24L233.18 220.98L232.58 221.71L231.96 222.41L231.31 223.09L230.64 223.75L229.95 224.38L229.24 224.99L228.5 225.56L227.74 226.12L226.96 226.64L226.17 227.14L225.35 227.61L224.52 228.05L223.67 228.46L222.8 228.84L221.92 229.19L221.02 229.51L220.11 229.8L219.19 230.05L218.25 230.27L217.3 230.45L216.34 230.6L215.37 230.71L214.39 230.79L213.4 230.83L212.4 230.84L24.99 227.91L24.14 227.88L23.3 227.81L22.47 227.71L21.65 227.57L20.84 227.4L20.05 227.19L19.27 226.96L18.51 226.69L17.76 226.39L17.03 226.06L16.31 225.71L15.61 225.32L14.94 224.91L14.28 224.47L13.64 224.01L13.02 223.52L12.42 223.01L11.84 222.47L11.28 221.91L10.75 221.33L10.25 220.73L9.76 220.1L9.3 219.46L8.87 218.8L8.47 218.12L8.09 217.43L7.74 216.72L7.42 215.99L7.13 215.25L6.87 214.49L6.64 213.73L6.44 212.95L6.27 212.15L6.14 211.35L6.04 210.54L5.97 209.72L5.94 208.89L5.95 208.05L5.99 207.21L6.07 206.36L6.73 200.6L6.77 200.3L6.83 200L6.9 199.71L6.98 199.42L7.08 199.15L7.18 198.88L7.3 198.61L7.44 198.36L7.58 198.11L7.74 197.87L7.9 197.64L8.07 197.42L8.26 197.21L8.45 197.01L8.65 196.82L8.86 196.63L9.08 196.46L9.31 196.3L9.54 196.14L9.78 196L10.02 195.87L10.28 195.75L10.53 195.64L10.79 195.55L11.06 195.46L11.33 195.39L11.6 195.33L11.88 195.28L12.16 195.25L12.44 195.23L12.72 195.22L13.01 195.22L13.29 195.24L13.58 195.27L13.87 195.32L14.16 195.38L14.44 195.46L14.73 195.55L15.01 195.66L15.3 195.78L17.97 196.99L20.64 198.17L23.31 199.32L25.98 200.44L28.65 201.53L31.33 202.59L34 203.62L36.68 204.62L39.35 205.59L42.03 206.52L44.71 207.43L47.39 208.3L50.07 209.15L52.75 209.96L55.43 210.74L58.11 211.5L60.8 212.22L63.48 212.91L66.17 213.57L68.85 214.2L71.54 214.8L74.23 215.36L76.91 215.9L79.6 216.41L82.29 216.88L84.98 217.33L87.68 217.74L87.89 217.77L85.11 215.36L82.07 212.7L79.12 210.07L76.25 207.47L73.47 204.92L70.77 202.4L68.16 199.92L65.63 197.48L63.18 195.07L60.82 192.7L58.55 190.38L56.36 188.08L54.25 185.83L52.23 183.61L50.29 181.43L48.44 179.29L46.68 177.19L44.99 175.12L43.4 173.09L41.88 171.1L40.46 169.15L39.11 167.23L37.86 165.35L36.68 163.51L35.59 161.71L34.59 159.94L33.67 158.21L32.83 156.52L32.09 154.87L31.42 153.26L30.84 151.68L30.34 150.14L29.93 148.64L29.61 147.17L29.37 145.75L29.21 144.36L29.14 143L29.24 141.49L29.61 140.08L30.23 138.77L31.1 137.55L32.18 136.43L33.47 135.39L34.96 134.43L36.63 133.55L38.46 132.73L40.44 131.98L42.56 131.28L44.8 130.64L47.15 130.04L49.59 129.48L52.11 128.96L54.69 128.47L57.32 128L59.98 127.56L62.66 127.12L65.35 126.69L68.03 126.27L70.69 125.84L73.3 125.4L75.86 124.95L78.36 124.48L80.77 123.98L83.08 123.45L85.29 122.89L87.36 122.28L89.3 121.63L91.08 120.92L92.69 120.16L94.12 119.33L95.35 118.43L96.36 117.46L97.15 116.41L97.69 115.27L97.98 114.04L98 112.71L97.73 111.28L97.24 110.04L96.53 108.96L95.6 108.03L94.47 107.23L93.15 106.56L91.65 106.02L89.99 105.59L88.17 105.27L86.2 105.04L84.1 104.91L81.88 104.85L79.54 104.87L77.11 104.96L74.59 105.11L72 105.3L69.34 105.54L66.62 105.81L63.87 106.11L61.08 106.42L58.28 106.74L55.46 107.07L52.65 107.39L49.86 107.7L47.09 107.98L44.37 108.23L41.69 108.45L39.07 108.62L36.52 108.73L34.06 108.78L31.7 108.76L29.44 108.66L27.3 108.48L25.29 108.2L23.42 107.82L21.7 107.32L20.15 106.71L18.77 105.97L17.58 105.1L16.59 104.08L15.8 102.92L15.12 101.57L14.49 100.17L13.93 98.72L13.42 97.22L12.98 95.67L12.6 94.08L12.28 92.43L12.03 90.74L11.83 88.99L11.69 87.2L11.62 85.36L11.61 83.47L11.66 81.53L11.77 79.54L11.94 77.5L12.17 75.42L12.46 73.28L12.82 71.1L13.24 68.86L13.71 66.58L14.25 64.25L14.85 61.86L15.52 59.43L16.24 56.95L17.02 54.43L17.87 51.85L18.78 49.22L19.75 46.55L20.78 43.82L21.87 41.05L23.02 38.22L24.23 35.35L25.51 32.43L26.84 29.46L28.24 26.44L29.7 23.37L31.22 20.25L32.8 17.09L34.44 13.87L36.15 10.6L36.27 10.37L36.4 10.15L36.54 9.92L36.68 9.7L36.82 9.49L36.97 9.28L37.13 9.07L37.29 8.86L37.45 8.66L37.62 8.47L37.79 8.27L37.96 8.09L38.14 7.9L38.33 7.72L38.51 7.55L38.71 7.38L38.9 7.21L39.1 7.05L39.3 6.9L39.51 6.74L39.72 6.6L39.93 6.45L40.15 6.32L40.37 6.19L40.59 6.06L40.81 5.94L41.04 5.82L41.27 5.71L41.51 5.6L41.74 5.5L41.98 5.4L42.23 5.31L42.47 5.23L42.72 5.15L42.96 5.07L43.22 5L43.47 4.94L43.72 4.88L43.98 4.83L44.24 4.79L54.17 3.17L55.16 3.03L56.15 2.93L57.13 2.86L58.1 2.83L59.08 2.84L60.04 2.88L61 2.96L61.95 3.08L62.9 3.23L63.83 3.41L64.75 3.63L65.67 3.88L66.57 4.16L67.45 4.48L68.33 4.83L69.19 5.2L70.04 5.61L70.87 6.05L71.68 6.51L72.47 7.01L73.25 7.53L74.01 8.08L74.75 8.66L75.47 9.27L76.16 9.9L76.84 10.56L77.49 11.24L78.11 11.94L78.71 12.68L79.29 13.43L79.84 14.21L80.36 15.01L80.85 15.83L81.32 16.67L81.76 17.53L82.16 18.42L82.53 19.32L82.88 20.24L83.18 21.18L83.46 22.14L122.29 168.32L161.13 22.14L161.4 21.18L161.71 20.24L162.05 19.32L162.42 18.42L162.83 17.53L163.26 16.67L163.73 15.83L164.22 15.01L164.75 14.21L165.3 13.43L165.87 12.68L166.47 11.94L167.1 11.24L167.75 10.56L168.42 9.9L169.12 9.27L169.84 8.66L170.57 8.08L171.33 7.53L172.11 7.01L172.91 6.51L173.72 6.05L174.55 5.61L175.39 5.2L176.25 4.83L177.13 4.48L178.02 4.16L178.92 3.88L179.83 3.63L180.75 3.41L181.69 3.23L182.63 3.08L183.58 2.96L184.54 2.88L185.51 2.84L186.48 2.83L187.46 2.86L188.44 2.93Z" id="e181iUBIVH"></path></defs><g><g><g><use xlink:href="#e181iUBIVH" opacity="1" fill="#f5f5f5" fill-opacity="1"></use></g></g></g></svg>